<svg xmlns="http://www.w3.org/2000/svg" xmlns:xlink="http://www.w3.org/1999/xlink" version="1.1" x="0px" y="0px" viewBox="0 0 40 50" enable-background="new 0 0 40 40" xml:space="preserve"><path fill-rule="evenodd" clip-rule="evenodd" d="M31.7,9.7l-1.4-1.4c-1-1-2.6-1-3.5,0l-2.5,2.5c-1-0.6-2.3-0.5-3.1,0.3  l-2.5,2.5l0.7,0.7l-8.8,8.8c-1,1-1.2,2.4-0.8,3.6l-1.3,1.3c-1,1-1,2.6,0,3.5c1,1,2.6,1,3.5,0l1.3-1.3c1.2,0.4,2.7,0.2,3.6-0.8  l8.8-8.8l0.7,0.7l2.5-2.5c0.9-0.9,1-2.2,0.3-3.1l2.5-2.5C32.6,12.3,32.6,10.7,31.7,9.7z M17.2,26.4l-3.5-3.5l7.1-7.1l3.5,3.5  L17.2,26.4z"/></svg>